<?xml version="1.0" encoding="utf-8"?>
<!-- Generator: Adobe Illustrator 27.4.0, SVG Export Plug-In . SVG Version: 6.00 Build 0)  -->
<svg version="1.1" xmlns="http://www.w3.org/2000/svg" xmlns:xlink="http://www.w3.org/1999/xlink" x="0px" y="0px"
	 viewBox="0 0 5314.8 1541.2" style="enable-background:new 0 0 5314.8 1541.2;" xml:space="preserve">
<style type="text/css">
	.st0{display:none;}
	.st1{fill:url(#SVGID_1_);}
	.st2{display:inline;}
	.st3{fill:url(#SVGID_00000129171239578243874240000001417516595829064358_);}
	.st4{fill:url(#SVGID_00000036242832904674990280000010588869846505312654_);}
	.st5{fill:#FFFFFF;}
	.st6{display:inline;fill:#FFFFFF;}
	.st7{fill:#1C1C1C;}
	.st8{fill:url(#SVGID_00000040572623909131638280000011617350663125275319_);}
	.st9{fill:#212223;}
	.st10{fill:url(#SVGID_00000172413836321255992040000006429516038475529404_);}
	.st11{fill:url(#SVGID_00000130621022094859652310000013231457862909146779_);}
	.st12{fill:url(#SVGID_00000133505189483143852200000010025931754440309946_);}
	.st13{display:none;fill:url(#SVGID_00000034792183581885262220000000983438673256134287_);}
	.st14{fill:url(#SVGID_00000114066520915917813310000014578283568595708599_);}
	.st15{fill:url(#SVGID_00000004511168896517530610000005454421702365464983_);}
</style>
<g id="Ebene_1" class="st0">
	<linearGradient id="SVGID_1_" gradientUnits="userSpaceOnUse" x1="2491.0769" y1="-3225.3606" x2="4491.0771" y2="-3225.3606">
		<stop  offset="0" style="stop-color:#3CB9FC"/>
		<stop  offset="7.260268e-02" style="stop-color:#41AFFA"/>
		<stop  offset="0.1942" style="stop-color:#4F96F6"/>
		<stop  offset="0.3499" style="stop-color:#676BEE"/>
		<stop  offset="0.5319" style="stop-color:#8631E3"/>
		<stop  offset="0.551" style="stop-color:#8A2BE2"/>
		<stop  offset="0.6091" style="stop-color:#8429DB"/>
		<stop  offset="0.6938" style="stop-color:#7423C8"/>
		<stop  offset="0.7946" style="stop-color:#591AA8"/>
		<stop  offset="0.9069" style="stop-color:#350D7C"/>
		<stop  offset="1" style="stop-color:#120052"/>
	</linearGradient>
	<rect x="2491.1" y="-4225.4" class="st1" width="2000" height="2000"/>
	<g class="st2">
		<g>
			
				<linearGradient id="SVGID_00000174593298704971993940000004188293524251132558_" gradientUnits="userSpaceOnUse" x1="3557.0081" y1="-2944.7166" x2="3936.4492" y2="-3082.8218">
				<stop  offset="0" style="stop-color:#FFFFFF"/>
				<stop  offset="0.2955" style="stop-color:#FDFDFD"/>
				<stop  offset="0.4331" style="stop-color:#F5F5F5"/>
				<stop  offset="0.538" style="stop-color:#E9E9E9"/>
				<stop  offset="0.6264" style="stop-color:#D6D6D6"/>
				<stop  offset="0.7043" style="stop-color:#BEBEBE"/>
				<stop  offset="0.7749" style="stop-color:#A1A1A1"/>
				<stop  offset="0.84" style="stop-color:#7E7E7E"/>
				<stop  offset="0.9008" style="stop-color:#565656"/>
				<stop  offset="0.9558" style="stop-color:#292929"/>
				<stop  offset="1" style="stop-color:#000000"/>
			</linearGradient>
			<polygon style="fill:url(#SVGID_00000174593298704971993940000004188293524251132558_);" points="3673.2,-3147.5 3576.8,-2919.8 
				3571,-2906.2 3891.9,-2906.2 3782.8,-3147.5 			"/>
			<g>
				
					<linearGradient id="SVGID_00000026155734206431275370000010299323761525368980_" gradientUnits="userSpaceOnUse" x1="3165.5007" y1="-3557.6084" x2="3475.407" y2="-3393.3232">
					<stop  offset="0.4452" style="stop-color:#FFFFFF"/>
					<stop  offset="0.5325" style="stop-color:#FCFCFC"/>
					<stop  offset="0.6045" style="stop-color:#F2F2F2"/>
					<stop  offset="0.6711" style="stop-color:#E0E0E0"/>
					<stop  offset="0.7345" style="stop-color:#C8C8C8"/>
					<stop  offset="0.7955" style="stop-color:#A9A9A9"/>
					<stop  offset="0.8549" style="stop-color:#828282"/>
					<stop  offset="0.9128" style="stop-color:#555555"/>
					<stop  offset="0.9682" style="stop-color:#212121"/>
					<stop  offset="1" style="stop-color:#000000"/>
				</linearGradient>
				<polygon style="fill:url(#SVGID_00000026155734206431275370000010299323761525368980_);" points="3313,-3219.2 3441,-3521.2 
					3352.9,-3718.5 3090.2,-3718.5 				"/>
			</g>
			<g>
				<polygon class="st5" points="3446.4,-2920.2 3574.4,-3222.3 3657.9,-3419.5 3524.6,-3718.5 3524.6,-3718.5 3524.5,-3718.5 
					3441,-3521.2 3313,-3219.2 3180.7,-2906.8 3440.7,-2906.8 				"/>
			</g>
		</g>
		<path class="st5" d="M3220.1-2786.2l-41.6-60.2h38.6l18.4,30.8h1.1l18.4-30.8h38.6l-41.6,60.2v35.1h-31.8V-2786.2z M3299.6-2846.4
			h31.8v95.3h-31.8V-2846.4z M3446.8-2846.3H3415l-37.8,49.6h-1v-49.6h-31.8v95.3h31.8l37.7-47.9h1.1v47.9h31.8V-2846.3z
			 M3560.9-2760.7h-34.3l-2.6,9.7h-33l27.7-95.3h50l27.7,95.3h-33L3560.9-2760.7z M3554.1-2786.2l-9.2-35h-2.2l-9.2,35H3554.1z
			 M3649.4-2786.3h-15v35.3h-31.8v-95.3h67.3c19.3,0,31,11.2,31,30.2c0,12.7-8.4,22.9-19.7,27.4l22.8,37.7h-34.5L3649.4-2786.3z
			 M3634.4-2811.2h29.5c3,0,5.2-2,5.2-5.2c0-3.4-2.2-4.9-5.2-4.9h-29.5V-2811.2z M3737.8-2821.2h-28.3v-25.2h88.4v25.2h-28.3v70.1
			h-31.8V-2821.2z M3805.1-2776.2h49.6c4.2,0,6.3-1.9,6.3-5c0-3-2-4.9-6.4-4.9h-22.6c-15.9,0-28.8-10.9-28.8-30.1
			c0-22.1,15.1-30.1,30.3-30.1h56.3v25.2h-48.6c-3.7,0-6.3,1.4-6.3,4.8c0,3.5,2.6,5,6.3,5h21.2c18.2,0,30.3,10.8,30.3,30
			c0,18.1-13.6,30.4-31.3,30.4h-56.8L3805.1-2776.2z"/>
	</g>
</g>
<g id="Ebene_5" class="st0">
	<rect y="-4225.4" class="st6" width="2000" height="2000"/>
	<g class="st2">
		<path class="st7" d="M732-2781.3l-41.3-59.7h38.3l18.2,30.5h1.1l18.2-30.5h38.3l-41.3,59.7v34.9H732V-2781.3z M811-2841h31.6v94.6
			H811V-2841z M957.1-2840.9h-31.6l-37.5,49.2H887v-49.2h-31.6v94.6H887l37.4-47.6h1.1v47.6h31.6V-2840.9z M1070.3-2756h-34
			l-2.6,9.6h-32.8l27.5-94.6h49.7l27.5,94.6h-32.8L1070.3-2756z M1063.6-2781.3l-9.2-34.7h-2.2l-9.2,34.7H1063.6z M1158.2-2781.4
			h-14.8v35h-31.6v-94.6h66.8c19.2,0,30.8,11.1,30.8,30c0,12.6-8.4,22.7-19.6,27.2l22.7,37.4h-34.3L1158.2-2781.4z M1143.3-2806.2
			h29.3c3,0,5.1-2,5.1-5.1c0-3.4-2.2-4.9-5.1-4.9h-29.3V-2806.2z M1245.9-2816h-28.1v-25h87.7v25h-28.1v69.6h-31.6V-2816z
			 M1312.8-2771.4h49.3c4.2,0,6.2-1.9,6.2-5c0-3-2-4.9-6.3-4.9h-22.4c-15.8,0-28.6-10.8-28.6-29.9c0-21.9,15-29.9,30.1-29.9h55.9v25
			h-48.2c-3.6,0-6.2,1.4-6.2,4.7c0,3.5,2.6,5,6.2,5h21.1c18.1,0,30.1,10.7,30.1,29.7c0,18-13.5,30.1-31,30.1h-56.4L1312.8-2771.4z"
			/>
		<g>
			<g>
				
					<linearGradient id="SVGID_00000165928589673225954570000000530569213886807999_" gradientUnits="userSpaceOnUse" x1="552.7313" y1="-3632.1685" x2="936.3378" y2="-3410.6934">
					<stop  offset="0" style="stop-color:#8A2BE2"/>
					<stop  offset="0.3818" style="stop-color:#892BE0"/>
					<stop  offset="0.5193" style="stop-color:#8529D9"/>
					<stop  offset="0.6174" style="stop-color:#7D27CD"/>
					<stop  offset="0.6967" style="stop-color:#7324BD"/>
					<stop  offset="0.7646" style="stop-color:#6620A7"/>
					<stop  offset="0.8248" style="stop-color:#551B8B"/>
					<stop  offset="0.8792" style="stop-color:#41146B"/>
					<stop  offset="0.9292" style="stop-color:#2A0D45"/>
					<stop  offset="0.9737" style="stop-color:#11051C"/>
					<stop  offset="1" style="stop-color:#000000"/>
				</linearGradient>
				<polygon style="fill:url(#SVGID_00000165928589673225954570000000530569213886807999_);" points="823.2,-3214.7 951.2,-3516.9 
					863.1,-3714.3 600.2,-3714.3 				"/>
			</g>
			<g>
				<polygon class="st7" points="956.7,-2915.5 1084.7,-3217.7 1168.3,-3415.2 1034.8,-3714.3 1034.8,-3714.3 1034.8,-3714.4 
					951.2,-3516.9 823.2,-3214.7 690.7,-2902 951,-2902 				"/>
				<polygon class="st9" points="1168.3,-3415.2 1034.8,-3714.3 1034.8,-3714.3 				"/>
			</g>
			
				<linearGradient id="SVGID_00000030456251646617617910000013009617994398549378_" gradientUnits="userSpaceOnUse" x1="1073.9901" y1="-2913.7253" x2="1336.4589" y2="-3045.0168">
				<stop  offset="0" style="stop-color:#8A2BE2"/>
				<stop  offset="0.2464" style="stop-color:#882BE0"/>
				<stop  offset="0.3883" style="stop-color:#8329D7"/>
				<stop  offset="0.5038" style="stop-color:#7B26C9"/>
				<stop  offset="0.605" style="stop-color:#6F23B5"/>
				<stop  offset="0.6969" style="stop-color:#5F1E9C"/>
				<stop  offset="0.7821" style="stop-color:#4C187C"/>
				<stop  offset="0.862" style="stop-color:#351056"/>
				<stop  offset="0.9359" style="stop-color:#1B082C"/>
				<stop  offset="1" style="stop-color:#000000"/>
			</linearGradient>
			<polygon style="fill:url(#SVGID_00000030456251646617617910000013009617994398549378_);" points="1180.7,-3140.2 1085.5,-2915.5 
				1079.8,-2902 1396.6,-2902 1288.9,-3140.2 			"/>
		</g>
	</g>
</g>
<g id="Ebene_6" class="st0">
	<rect y="-1922.6" class="st6" width="5314.8" height="1541.2"/>
	<g class="st2">
		<g>
			<path d="M2604.8-865l9.6,36.9c2.1,8.1,4,15.6,5.4,23.1h0.4c1.7-7.3,4-15.1,6.5-22.9l11.8-37h11.1l11.2,36.3
				c2.7,8.7,4.8,16.3,6.5,23.7h0.5c1.2-7.3,3.1-15,5.5-23.5l10.3-36.4h13l-23.4,72.6h-12l-11.1-34.6c-2.5-8.1-4.6-15.3-6.5-23.8
				h-0.3c-1.8,8.7-4,16.2-6.6,24l-11.7,34.5h-12l-21.9-72.6H2604.8z"/>
			<path d="M2717-865l9.6,36.9c2.1,8.1,4,15.6,5.4,23.1h0.4c1.7-7.3,4-15.1,6.5-22.9l11.8-37h11.1l11.2,36.3
				c2.7,8.7,4.8,16.3,6.5,23.7h0.5c1.2-7.3,3.1-15,5.5-23.5l10.3-36.4h13l-23.4,72.6h-12l-11.1-34.6c-2.5-8.1-4.6-15.3-6.5-23.8
				h-0.3c-1.8,8.7-4,16.2-6.6,24l-11.7,34.5h-12l-21.9-72.6H2717z"/>
			<path d="M2829.2-865l9.6,36.9c2.1,8.1,4,15.6,5.4,23.1h0.4c1.7-7.3,4-15.1,6.5-22.9l11.8-37h11.1l11.2,36.3
				c2.7,8.7,4.8,16.3,6.5,23.7h0.5c1.2-7.3,3.1-15,5.5-23.5l10.3-36.4h13l-23.4,72.6h-12l-11.1-34.6c-2.5-8.1-4.6-15.3-6.5-23.8
				h-0.3c-1.8,8.7-4,16.2-6.6,24l-11.7,34.5h-12l-21.9-72.6H2829.2z"/>
			<path d="M2925.4-800.3c0-5.5,3.8-9.4,9-9.4c5.2,0,8.9,3.9,8.9,9.4c0,5.4-3.5,9.5-9,9.5C2929-790.8,2925.4-794.9,2925.4-800.3z"/>
			<path d="M2964.4-865l15.9,42.9c1.7,4.8,3.5,10.5,4.7,14.8h0.3c1.3-4.3,2.8-9.9,4.6-15.1l14.4-42.6h13.9l-19.8,51.7
				c-9.4,24.9-15.9,37.6-24.9,45.4c-6.5,5.7-12.9,8-16.2,8.5l-3.3-11.1c3.3-1,7.7-3.1,11.5-6.4c3.6-2.9,8.1-8,11.1-14.7
				c0.6-1.4,1-2.4,1-3.2s-0.3-1.8-0.9-3.5L2950-865H2964.4z"/>
			<path d="M3044.9-885.4c0.1,4.5-3.2,8.1-8.4,8.1c-4.6,0-7.9-3.6-7.9-8.1c0-4.7,3.4-8.2,8.2-8.2
				C3041.8-893.7,3044.9-890.1,3044.9-885.4z M3030.2-792.5V-865h13.2v72.6H3030.2z"/>
			<path d="M3065.3-845.4c0-7.5-0.1-13.6-0.6-19.6h11.7l0.8,12h0.3c3.6-6.9,12-13.6,24-13.6c10,0,25.6,6,25.6,30.9v43.3h-13.2v-41.8
				c0-11.7-4.3-21.4-16.8-21.4c-8.7,0-15.4,6.2-17.7,13.5c-0.6,1.6-0.9,3.9-0.9,6.1v43.6h-13.2V-845.4z"/>
			<path d="M3188.8-792.5l-1-9.1h-0.4c-4.1,5.7-11.8,10.8-22.2,10.8c-14.7,0-22.2-10.3-22.2-20.8c0-17.5,15.6-27.1,43.6-27v-1.5
				c0-6-1.7-16.8-16.5-16.8c-6.7,0-13.8,2.1-18.9,5.4l-3-8.7c6-3.9,14.7-6.5,23.8-6.5c22.2,0,27.6,15.1,27.6,29.7v27.1
				c0,6.3,0.3,12.4,1.2,17.4H3188.8z M3186.8-829.5c-14.4-0.3-30.7,2.2-30.7,16.3c0,8.5,5.7,12.6,12.4,12.6c9.5,0,15.4-6,17.5-12.1
				c0.5-1.3,0.8-2.8,0.8-4.2V-829.5z"/>
			<path d="M3220.9-842.4c0-8.5-0.1-15.9-0.6-22.6h11.5l0.4,14.2h0.6c3.3-9.8,11.2-15.9,20.1-15.9c1.5,0,2.5,0.2,3.8,0.5v12.4
				c-1.3-0.3-2.7-0.5-4.5-0.5c-9.3,0-15.9,7-17.7,16.9c-0.3,1.8-0.6,3.9-0.6,6.2v38.7h-13V-842.4z"/>
			<path d="M3289.4-885.9v20.8h18.9v10h-18.9v39.1c0,9,2.5,14.1,9.9,14.1c3.5,0,6-0.5,7.7-0.9l0.6,9.9c-2.5,1-6.6,1.8-11.7,1.8
				c-6.2,0-11.1-2-14.2-5.5c-3.7-3.9-5.1-10.3-5.1-18.9V-855h-11.2v-10h11.2v-17.4L3289.4-885.9z"/>
			<path d="M3321.3-805.9c3.9,2.5,10.8,5.2,17.4,5.2c9.6,0,14.1-4.8,14.1-10.8c0-6.3-3.8-9.8-13.5-13.3c-13-4.7-19.2-11.8-19.2-20.5
				c0-11.7,9.5-21.3,25-21.3c7.3,0,13.8,2.1,17.8,4.5l-3.3,9.6c-2.8-1.8-8.1-4.2-14.8-4.2c-7.8,0-12.1,4.5-12.1,9.9
				c0,6,4.4,8.7,13.8,12.3c12.6,4.8,19,11.1,19,21.9c0,12.7-9.9,21.7-27.1,21.7c-8,0-15.3-2-20.4-5L3321.3-805.9z"/>
			<path d="M3377.8-800.3c0-5.5,3.8-9.4,9-9.4c5.2,0,8.9,3.9,8.9,9.4c0,5.4-3.5,9.5-9,9.5C3381.4-790.8,3377.8-794.9,3377.8-800.3z"
				/>
			<path d="M3474.6-898.9v87.7c0,6.4,0.1,13.8,0.6,18.7h-11.8l-0.6-12.6h-0.3c-4,8.1-12.9,14.2-24.7,14.2c-17.5,0-31-14.8-31-36.9
				c-0.2-24.1,14.8-39,32.5-39c11.1,0,18.6,5.2,21.9,11.1h0.3v-43.3H3474.6z M3461.4-835.5c0-1.7-0.1-3.9-0.6-5.5
				c-2-8.4-9.1-15.3-19-15.3c-13.6,0-21.7,12-21.7,28c0,14.7,7.2,26.8,21.4,26.8c8.8,0,16.9-5.8,19.3-15.7c0.5-1.8,0.6-3.6,0.6-5.7
				V-835.5z"/>
			<path d="M3503.9-826.3c0.3,17.8,11.7,25.2,24.9,25.2c9.4,0,15.1-1.7,20.1-3.8l2.2,9.4c-4.6,2.1-12.6,4.5-24.1,4.5
				c-22.3,0-35.7-14.7-35.7-36.6s12.9-39.1,34-39.1c23.7,0,30,20.8,30,34.2c0,2.7-0.3,4.8-0.5,6.2H3503.9z M3542.6-835.8
				c0.1-8.4-3.5-21.4-18.3-21.4c-13.3,0-19.2,12.3-20.2,21.4H3542.6z"/>
		</g>
		<path class="st7" d="M630.1-1097.6l-181.3-262.1H617l80,134h4.7l80-134H950l-181.3,262.1v153H630.1V-1097.6z M976.6-1359.8h138.6
			v415.2H976.6V-1359.8z M1617.6-1359.4H1479l-164.7,215.9h-4.1v-215.9h-138.6v415.2h138.6l164.1-208.8h4.7v208.8h138.6V-1359.4z
			 M2114.7-986.7h-149.3l-11.3,42.1h-144l120.9-415.2h218l120.9,415.2h-144L2114.7-986.7z M2085-1097.6l-40.3-152.4h-9.5
			l-40.3,152.4H2085z M2500.3-1098.2h-65.2v153.6h-138.6v-415.2h293.3c84.1,0,135.1,48.6,135.1,131.7c0,55.2-36.7,99.6-85.9,119.2
			l99.5,164.3H2588L2500.3-1098.2z M2435.2-1206.7h128.6c13,0,22.5-8.9,22.5-22.5c0-14.8-9.5-21.4-22.5-21.4h-128.6V-1206.7z
			 M2885.4-1250h-123.2v-109.7h385.1v109.7H3024v305.4h-138.6V-1250z M3178.6-1054.3h216.2c18.4,0,27.2-8.3,27.2-21.9
			c0-13-8.9-21.3-27.8-21.3h-98.3c-69.3,0-125.6-47.4-125.6-131.1c0-96.1,65.8-131.1,132.1-131.1h245.3v109.7h-211.5
			c-16,0-27.3,5.9-27.3,20.8c0,15.4,11.3,21.9,27.3,21.9h92.4c79.4,0,132.1,46.9,132.1,130.5c0,78.9-59.2,132.3-136.3,132.3h-247.6
			L3178.6-1054.3z"/>
		<g>
			<g>
				
					<linearGradient id="SVGID_00000099621648986215085370000010060063875047498388_" gradientUnits="userSpaceOnUse" x1="3782.1753" y1="-1568.1326" x2="4274.9111" y2="-1283.6514">
					<stop  offset="0" style="stop-color:#8A2BE2"/>
					<stop  offset="0.3818" style="stop-color:#892BE0"/>
					<stop  offset="0.5193" style="stop-color:#8529D9"/>
					<stop  offset="0.6174" style="stop-color:#7D27CD"/>
					<stop  offset="0.6967" style="stop-color:#7324BD"/>
					<stop  offset="0.7646" style="stop-color:#6620A7"/>
					<stop  offset="0.8248" style="stop-color:#551B8B"/>
					<stop  offset="0.8792" style="stop-color:#41146B"/>
					<stop  offset="0.9292" style="stop-color:#2A0D45"/>
					<stop  offset="0.9737" style="stop-color:#11051C"/>
					<stop  offset="1" style="stop-color:#000000"/>
				</linearGradient>
				<polygon style="fill:url(#SVGID_00000099621648986215085370000010060063875047498388_);" points="4129.5,-1031.9 4294,-1420.1 
					4180.9,-1673.7 3843.1,-1673.7 				"/>
			</g>
			<g>
				<polygon class="st7" points="4301,-647.6 4465.5,-1035.8 4572.9,-1289.4 4401.4,-1673.7 4401.4,-1673.7 4401.4,-1673.7 
					4294,-1420.1 4129.5,-1031.9 3959.4,-630.3 4293.7,-630.3 				"/>
				<polygon class="st9" points="4572.9,-1289.4 4401.4,-1673.7 4401.4,-1673.7 				"/>
			</g>
			
				<linearGradient id="SVGID_00000080921212988788277560000012429599452585001896_" gradientUnits="userSpaceOnUse" x1="4451.7231" y1="-645.3043" x2="4788.8599" y2="-813.946">
				<stop  offset="0" style="stop-color:#8A2BE2"/>
				<stop  offset="0.2464" style="stop-color:#882BE0"/>
				<stop  offset="0.3883" style="stop-color:#8329D7"/>
				<stop  offset="0.5038" style="stop-color:#7B26C9"/>
				<stop  offset="0.605" style="stop-color:#6F23B5"/>
				<stop  offset="0.6969" style="stop-color:#5F1E9C"/>
				<stop  offset="0.7821" style="stop-color:#4C187C"/>
				<stop  offset="0.862" style="stop-color:#351056"/>
				<stop  offset="0.9359" style="stop-color:#1B082C"/>
				<stop  offset="1" style="stop-color:#000000"/>
			</linearGradient>
			<polygon style="fill:url(#SVGID_00000080921212988788277560000012429599452585001896_);" points="4588.8,-936.2 4466.6,-647.6 
				4459.2,-630.3 4866.1,-630.3 4727.7,-936.2 			"/>
		</g>
	</g>
</g>
<g id="Ebene_8">
	
		<linearGradient id="SVGID_00000008850461011172449240000005120517411326871208_" gradientUnits="userSpaceOnUse" x1="0" y1="770.589" x2="5314.8462" y2="770.589">
		<stop  offset="0" style="stop-color:#3CB9FC"/>
		<stop  offset="7.260268e-02" style="stop-color:#41AFFA"/>
		<stop  offset="0.1942" style="stop-color:#4F96F6"/>
		<stop  offset="0.3499" style="stop-color:#676BEE"/>
		<stop  offset="0.5319" style="stop-color:#8631E3"/>
		<stop  offset="0.551" style="stop-color:#8A2BE2"/>
		<stop  offset="0.6091" style="stop-color:#8429DB"/>
		<stop  offset="0.6938" style="stop-color:#7423C8"/>
		<stop  offset="0.7946" style="stop-color:#591AA8"/>
		<stop  offset="0.9069" style="stop-color:#350D7C"/>
		<stop  offset="1" style="stop-color:#120052"/>
	</linearGradient>
	
		<rect style="display:none;fill:url(#SVGID_00000008850461011172449240000005120517411326871208_);" width="5314.8" height="1541.2"/>
	<g>
		<g>
			
				<linearGradient id="SVGID_00000006701000164089155280000014357540431477658553_" gradientUnits="userSpaceOnUse" x1="4439.7715" y1="1241.5768" x2="4927.0938" y2="1064.2059">
				<stop  offset="0" style="stop-color:#FFFFFF"/>
				<stop  offset="0.2955" style="stop-color:#FDFDFD"/>
				<stop  offset="0.4331" style="stop-color:#F5F5F5"/>
				<stop  offset="0.538" style="stop-color:#E9E9E9"/>
				<stop  offset="0.6264" style="stop-color:#D6D6D6"/>
				<stop  offset="0.7043" style="stop-color:#BEBEBE"/>
				<stop  offset="0.7749" style="stop-color:#A1A1A1"/>
				<stop  offset="0.84" style="stop-color:#7E7E7E"/>
				<stop  offset="0.9008" style="stop-color:#565656"/>
				<stop  offset="0.9558" style="stop-color:#292929"/>
				<stop  offset="1" style="stop-color:#000000"/>
			</linearGradient>
			<polygon style="fill:url(#SVGID_00000006701000164089155280000014357540431477658553_);" points="4588.7,981.8 4465.1,1273.5 
				4457.7,1290.9 4868.9,1290.9 4729.1,981.8 			"/>
			<g>
				
					<linearGradient id="SVGID_00000111893079347714569030000017417996241056646545_" gradientUnits="userSpaceOnUse" x1="3938.1848" y1="456.3594" x2="4335.2271" y2="666.8362">
					<stop  offset="0.4452" style="stop-color:#FFFFFF"/>
					<stop  offset="0.5325" style="stop-color:#FCFCFC"/>
					<stop  offset="0.6045" style="stop-color:#F2F2F2"/>
					<stop  offset="0.6711" style="stop-color:#E0E0E0"/>
					<stop  offset="0.7345" style="stop-color:#C8C8C8"/>
					<stop  offset="0.7955" style="stop-color:#A9A9A9"/>
					<stop  offset="0.8549" style="stop-color:#828282"/>
					<stop  offset="0.9128" style="stop-color:#555555"/>
					<stop  offset="0.9682" style="stop-color:#212121"/>
					<stop  offset="1" style="stop-color:#000000"/>
				</linearGradient>
				<polygon style="fill:url(#SVGID_00000111893079347714569030000017417996241056646545_);" points="4127.2,890 4291.1,503 
					4178.3,250.3 3841.7,250.3 				"/>
			</g>
			<g>
				<polygon class="st5" points="4298.1,1273 4462,886 4569.1,633.2 4398.2,250.3 4398.2,250.3 4398.2,250.2 4291.1,503 4127.2,890 
					3957.6,1290.2 4290.8,1290.2 				"/>
			</g>
		</g>
		<g>
			<path class="st5" d="M2602,1064.2l9.6,36.9c2.1,8.1,4,15.6,5.4,23.1h0.4c1.7-7.3,4-15.1,6.5-22.9l11.8-37h11.1l11.2,36.3
				c2.7,8.7,4.8,16.3,6.5,23.7h0.5c1.2-7.3,3.1-15,5.5-23.5l10.3-36.4h13l-23.4,72.6h-12l-11.1-34.6c-2.5-8.1-4.6-15.3-6.5-23.8
				h-0.3c-1.8,8.7-4,16.2-6.6,24l-11.7,34.5h-12l-21.9-72.6H2602z"/>
			<path class="st5" d="M2714.2,1064.2l9.6,36.9c2.1,8.1,4,15.6,5.4,23.1h0.4c1.7-7.3,4-15.1,6.5-22.9l11.8-37h11.1l11.2,36.3
				c2.7,8.7,4.8,16.3,6.5,23.7h0.5c1.2-7.3,3.1-15,5.5-23.5l10.3-36.4h13l-23.4,72.6h-12l-11.1-34.6c-2.5-8.1-4.6-15.3-6.5-23.8
				h-0.3c-1.8,8.7-4,16.2-6.6,24l-11.7,34.5h-12l-21.9-72.6H2714.2z"/>
			<path class="st5" d="M2826.4,1064.2l9.6,36.9c2.1,8.1,4,15.6,5.4,23.1h0.4c1.7-7.3,4-15.1,6.5-22.9l11.8-37h11.1l11.2,36.3
				c2.7,8.7,4.8,16.3,6.5,23.7h0.5c1.2-7.3,3.1-15,5.5-23.5l10.3-36.4h13l-23.4,72.6h-12l-11.1-34.6c-2.5-8.1-4.6-15.3-6.5-23.8
				h-0.3c-1.8,8.7-4,16.2-6.6,24l-11.7,34.5h-12l-21.9-72.6H2826.4z"/>
			<path class="st5" d="M2922.5,1128.9c0-5.5,3.8-9.4,9-9.4c5.2,0,8.9,3.9,8.9,9.4c0,5.4-3.5,9.5-9,9.5
				C2926.1,1138.4,2922.5,1134.3,2922.5,1128.9z"/>
			<path class="st5" d="M2961.5,1064.2l15.9,42.9c1.7,4.8,3.5,10.5,4.7,14.8h0.3c1.3-4.3,2.8-9.9,4.6-15.1l14.4-42.6h13.9
				l-19.8,51.7c-9.4,24.9-15.9,37.6-24.9,45.4c-6.5,5.7-12.9,8-16.2,8.5l-3.3-11.1c3.3-1,7.7-3.1,11.5-6.4c3.6-2.9,8.1-8,11.1-14.7
				c0.6-1.4,1-2.4,1-3.2s-0.3-1.8-0.9-3.5l-26.8-66.9H2961.5z"/>
			<path class="st5" d="M3042.1,1043.8c0.1,4.5-3.2,8.1-8.4,8.1c-4.6,0-7.9-3.6-7.9-8.1c0-4.7,3.4-8.2,8.2-8.2
				C3038.9,1035.5,3042.1,1039.1,3042.1,1043.8z M3027.4,1136.7v-72.6h13.2v72.6H3027.4z"/>
			<path class="st5" d="M3062.5,1083.8c0-7.5-0.1-13.6-0.6-19.6h11.7l0.8,12h0.3c3.6-6.9,12-13.6,24-13.6c10,0,25.6,6,25.6,30.9
				v43.3h-13.2v-41.8c0-11.7-4.3-21.4-16.8-21.4c-8.7,0-15.4,6.2-17.7,13.5c-0.6,1.6-0.9,3.9-0.9,6.1v43.6h-13.2V1083.8z"/>
			<path class="st5" d="M3185.9,1136.7l-1-9.1h-0.4c-4.1,5.7-11.8,10.8-22.2,10.8c-14.7,0-22.2-10.3-22.2-20.8
				c0-17.5,15.6-27.1,43.6-27v-1.5c0-6-1.7-16.8-16.5-16.8c-6.7,0-13.8,2.1-18.9,5.4l-3-8.7c6-3.9,14.7-6.5,23.8-6.5
				c22.2,0,27.6,15.1,27.6,29.7v27.1c0,6.3,0.3,12.4,1.2,17.4H3185.9z M3184,1099.7c-14.4-0.3-30.7,2.2-30.7,16.3
				c0,8.5,5.7,12.6,12.4,12.6c9.5,0,15.4-6,17.5-12.1c0.5-1.3,0.8-2.8,0.8-4.2V1099.7z"/>
			<path class="st5" d="M3218,1086.8c0-8.5-0.1-15.9-0.6-22.6h11.5l0.4,14.2h0.6c3.3-9.8,11.2-15.9,20.1-15.9c1.5,0,2.5,0.2,3.8,0.5
				v12.4c-1.3-0.3-2.7-0.5-4.5-0.5c-9.3,0-15.9,7-17.7,16.9c-0.3,1.8-0.6,3.9-0.6,6.2v38.7h-13V1086.8z"/>
			<path class="st5" d="M3286.6,1043.3v20.8h18.9v10h-18.9v39.1c0,9,2.5,14.1,9.9,14.1c3.5,0,6-0.5,7.7-0.9l0.6,9.9
				c-2.5,1-6.6,1.8-11.7,1.8c-6.2,0-11.1-2-14.2-5.5c-3.7-3.9-5.1-10.3-5.1-18.9v-39.6h-11.2v-10h11.2v-17.4L3286.6,1043.3z"/>
			<path class="st5" d="M3318.5,1123.2c3.9,2.5,10.8,5.2,17.4,5.2c9.6,0,14.1-4.8,14.1-10.8c0-6.3-3.8-9.8-13.5-13.3
				c-13-4.7-19.2-11.8-19.2-20.5c0-11.7,9.5-21.3,25-21.3c7.3,0,13.8,2.1,17.8,4.5l-3.3,9.6c-2.8-1.8-8.1-4.2-14.8-4.2
				c-7.8,0-12.1,4.5-12.1,9.9c0,6,4.4,8.7,13.8,12.3c12.6,4.8,19,11.1,19,21.9c0,12.7-9.9,21.7-27.1,21.7c-8,0-15.3-2-20.4-5
				L3318.5,1123.2z"/>
			<path class="st5" d="M3374.9,1128.9c0-5.5,3.8-9.4,9-9.4c5.2,0,8.9,3.9,8.9,9.4c0,5.4-3.5,9.5-9,9.5
				C3378.5,1138.4,3374.9,1134.3,3374.9,1128.9z"/>
			<path class="st5" d="M3471.8,1030.3v87.7c0,6.4,0.1,13.8,0.6,18.7h-11.8l-0.6-12.6h-0.3c-4,8.1-12.9,14.2-24.7,14.2
				c-17.5,0-31-14.8-31-36.9c-0.2-24.1,14.8-39,32.5-39c11.1,0,18.6,5.2,21.9,11.1h0.3v-43.3H3471.8z M3458.6,1093.7
				c0-1.7-0.1-3.9-0.6-5.5c-2-8.4-9.1-15.3-19-15.3c-13.6,0-21.7,12-21.7,28c0,14.7,7.2,26.8,21.4,26.8c8.8,0,16.9-5.8,19.3-15.7
				c0.5-1.8,0.6-3.6,0.6-5.7V1093.7z"/>
			<path class="st5" d="M3501.1,1102.8c0.3,17.8,11.7,25.2,24.9,25.2c9.4,0,15.1-1.7,20.1-3.8l2.2,9.4c-4.6,2.1-12.6,4.5-24.1,4.5
				c-22.3,0-35.7-14.7-35.7-36.6s12.9-39.1,34-39.1c23.7,0,30,20.8,30,34.2c0,2.7-0.3,4.8-0.5,6.2H3501.1z M3539.8,1093.4
				c0.1-8.4-3.5-21.4-18.3-21.4c-13.3,0-19.2,12.3-20.2,21.4H3539.8z"/>
		</g>
		<path class="st5" d="M627.3,825L446,562.8h168.3l80,134h4.7l80-134h168.3L765.9,825v153H627.3V825z M973.8,562.8h138.6V978H973.8
			V562.8z M1614.8,563.2h-138.6l-164.7,215.9h-4.1V563.2h-138.6v415.2h138.6l164.1-208.8h4.7v208.8h138.6V563.2z M2111.9,935.9
			h-149.3l-11.3,42.1h-144l120.9-415.2h218L2267.1,978h-144L2111.9,935.9z M2082.2,825l-40.3-152.4h-9.5L1992.2,825H2082.2z
			 M2497.5,824.4h-65.2V978h-138.6V562.8H2587c84.1,0,135.1,48.6,135.1,131.7c0,55.2-36.7,99.6-85.9,119.2l99.5,164.3h-150.5
			L2497.5,824.4z M2432.3,715.9h128.6c13,0,22.5-8.9,22.5-22.5c0-14.8-9.5-21.4-22.5-21.4h-128.6V715.9z M2882.6,672.6h-123.2V562.8
			h385.1v109.7h-123.2V978h-138.6V672.6z M3175.8,868.3h216.2c18.4,0,27.2-8.3,27.2-21.9c0-13-8.9-21.3-27.8-21.3h-98.3
			c-69.3,0-125.6-47.4-125.6-131.1c0-96.1,65.8-131.1,132.1-131.1h245.3v109.7h-211.5c-16,0-27.3,5.9-27.3,20.8
			c0,15.4,11.3,21.9,27.3,21.9h92.4c79.4,0,132.1,46.9,132.1,130.5c0,78.9-59.2,132.3-136.3,132.3H3174L3175.8,868.3z"/>
	</g>
</g>
</svg>
